G04 #@! TF.GenerationSoftware,KiCad,Pcbnew,(5.1.2)-1*
G04 #@! TF.CreationDate,2021-08-30T19:49:36+09:00*
G04 #@! TF.ProjectId,IR,49522e6b-6963-4616-945f-706362585858,v1.0*
G04 #@! TF.SameCoordinates,Original*
G04 #@! TF.FileFunction,Copper,L2,Bot*
G04 #@! TF.FilePolarity,Positive*
%FSLAX46Y46*%
G04 Gerber Fmt 4.6, Leading zero omitted, Abs format (unit mm)*
G04 Created by KiCad (PCBNEW (5.1.2)-1) date 2021-08-30 19:49:36*
%MOMM*%
%LPD*%
G04 APERTURE LIST*
%ADD10O,1.800000X1.524000*%
%ADD11C,0.800000*%
%ADD12C,0.300000*%
%ADD13C,0.254000*%
G04 APERTURE END LIST*
D10*
X185500000Y-113000000D03*
X185500000Y-111000000D03*
X185500000Y-109000000D03*
X185500000Y-107000000D03*
X192000000Y-107000000D03*
X192000000Y-109000000D03*
X192000000Y-111000000D03*
X192000000Y-113000000D03*
D11*
X187750000Y-113000000D03*
X196250000Y-109500000D03*
X187500000Y-105000000D03*
X190000000Y-101250000D03*
X182500000Y-107000000D03*
X190026000Y-104568200D03*
D12*
X192000000Y-113000000D02*
X187750000Y-113000000D01*
X185500000Y-107000000D02*
X182500000Y-107000000D01*
X192605400Y-114112300D02*
X185500000Y-114112300D01*
X193275300Y-113442400D02*
X192605400Y-114112300D01*
X193275300Y-108275300D02*
X193275300Y-113442400D01*
X192000000Y-107000000D02*
X193275300Y-108275300D01*
X185500000Y-113000000D02*
X185500000Y-114112300D01*
X185500000Y-111000000D02*
X186750300Y-111000000D01*
X190375200Y-107375100D02*
X186750300Y-111000000D01*
X192000000Y-109000000D02*
X190375200Y-107375100D01*
X190026000Y-107026000D02*
X190026000Y-104568200D01*
X190375200Y-107375100D02*
X190026000Y-107026000D01*
D13*
G36*
X195139017Y-100841637D02*
G01*
X194841637Y-101139017D01*
X194607988Y-101488698D01*
X194447047Y-101877244D01*
X194365000Y-102289721D01*
X194365000Y-102710279D01*
X194447047Y-103122756D01*
X194607988Y-103511302D01*
X194841637Y-103860983D01*
X195139017Y-104158363D01*
X195488698Y-104392012D01*
X195877244Y-104552953D01*
X196289721Y-104635000D01*
X196710279Y-104635000D01*
X197122756Y-104552953D01*
X197511302Y-104392012D01*
X197860983Y-104158363D01*
X198158363Y-103860983D01*
X198290000Y-103663974D01*
X198290001Y-116336027D01*
X198158363Y-116139017D01*
X197860983Y-115841637D01*
X197511302Y-115607988D01*
X197122756Y-115447047D01*
X196710279Y-115365000D01*
X196289721Y-115365000D01*
X195877244Y-115447047D01*
X195488698Y-115607988D01*
X195139017Y-115841637D01*
X194841637Y-116139017D01*
X194607988Y-116488698D01*
X194447047Y-116877244D01*
X194365000Y-117289721D01*
X194365000Y-117710279D01*
X194447047Y-118122756D01*
X194607988Y-118511302D01*
X194841637Y-118860983D01*
X195139017Y-119158363D01*
X195336026Y-119290000D01*
X182663974Y-119290000D01*
X182860983Y-119158363D01*
X183158363Y-118860983D01*
X183392012Y-118511302D01*
X183552953Y-118122756D01*
X183635000Y-117710279D01*
X183635000Y-117289721D01*
X183552953Y-116877244D01*
X183392012Y-116488698D01*
X183158363Y-116139017D01*
X182860983Y-115841637D01*
X182511302Y-115607988D01*
X182122756Y-115447047D01*
X181710279Y-115365000D01*
X181289721Y-115365000D01*
X180877244Y-115447047D01*
X180488698Y-115607988D01*
X180139017Y-115841637D01*
X179841637Y-116139017D01*
X179710000Y-116336026D01*
X179710000Y-109000000D01*
X183958241Y-109000000D01*
X183985214Y-109273860D01*
X184065096Y-109537195D01*
X184194817Y-109779887D01*
X184369392Y-109992608D01*
X184378399Y-110000000D01*
X184369392Y-110007392D01*
X184194817Y-110220113D01*
X184065096Y-110462805D01*
X183985214Y-110726140D01*
X183958241Y-111000000D01*
X183985214Y-111273860D01*
X184065096Y-111537195D01*
X184194817Y-111779887D01*
X184369392Y-111992608D01*
X184378399Y-112000000D01*
X184369392Y-112007392D01*
X184194817Y-112220113D01*
X184065096Y-112462805D01*
X183985214Y-112726140D01*
X183958241Y-113000000D01*
X183985214Y-113273860D01*
X184065096Y-113537195D01*
X184194817Y-113779887D01*
X184369392Y-113992608D01*
X184582113Y-114167183D01*
X184724082Y-114243067D01*
X184726359Y-114266187D01*
X184771246Y-114414160D01*
X184844138Y-114550533D01*
X184942236Y-114670064D01*
X185061767Y-114768162D01*
X185198140Y-114841054D01*
X185346113Y-114885941D01*
X185461439Y-114897300D01*
X185461440Y-114897300D01*
X185500000Y-114901098D01*
X185538561Y-114897300D01*
X192566847Y-114897300D01*
X192605400Y-114901097D01*
X192643953Y-114897300D01*
X192643961Y-114897300D01*
X192759287Y-114885941D01*
X192907260Y-114841054D01*
X193043633Y-114768162D01*
X193163164Y-114670064D01*
X193187747Y-114640110D01*
X193803110Y-114024747D01*
X193833064Y-114000164D01*
X193931162Y-113880633D01*
X194004054Y-113744260D01*
X194048942Y-113596287D01*
X194056320Y-113521374D01*
X194060300Y-113480961D01*
X194060300Y-113480956D01*
X194064097Y-113442400D01*
X194060300Y-113403844D01*
X194060300Y-108313856D01*
X194064097Y-108275300D01*
X194060300Y-108236740D01*
X194060300Y-108236739D01*
X194053449Y-108167183D01*
X194048942Y-108121413D01*
X194004054Y-107973440D01*
X193966356Y-107902912D01*
X193931162Y-107837067D01*
X193833064Y-107717536D01*
X193803111Y-107692954D01*
X193484350Y-107374193D01*
X193514786Y-107273860D01*
X193541759Y-107000000D01*
X193514786Y-106726140D01*
X193434904Y-106462805D01*
X193305183Y-106220113D01*
X193130608Y-106007392D01*
X192917887Y-105832817D01*
X192675195Y-105703096D01*
X192411860Y-105623214D01*
X192206625Y-105603000D01*
X191793375Y-105603000D01*
X191588140Y-105623214D01*
X191324805Y-105703096D01*
X191082113Y-105832817D01*
X190869392Y-106007392D01*
X190811000Y-106078543D01*
X190811000Y-105246911D01*
X190829937Y-105227974D01*
X190943205Y-105058456D01*
X191021226Y-104870098D01*
X191061000Y-104670139D01*
X191061000Y-104466261D01*
X191021226Y-104266302D01*
X190943205Y-104077944D01*
X190829937Y-103908426D01*
X190685774Y-103764263D01*
X190516256Y-103650995D01*
X190327898Y-103572974D01*
X190127939Y-103533200D01*
X189924061Y-103533200D01*
X189724102Y-103572974D01*
X189535744Y-103650995D01*
X189366226Y-103764263D01*
X189222063Y-103908426D01*
X189108795Y-104077944D01*
X189030774Y-104266302D01*
X188991000Y-104466261D01*
X188991000Y-104670139D01*
X189030774Y-104870098D01*
X189108795Y-105058456D01*
X189222063Y-105227974D01*
X189241001Y-105246912D01*
X189241000Y-106987500D01*
X189237203Y-107026112D01*
X189244436Y-107099447D01*
X189252359Y-107179886D01*
X189252375Y-107179940D01*
X189252381Y-107179997D01*
X189274386Y-107252498D01*
X189297246Y-107327859D01*
X189297274Y-107327912D01*
X189297290Y-107327964D01*
X189302477Y-107337666D01*
X186631574Y-110008569D01*
X186630608Y-110007392D01*
X186621601Y-110000000D01*
X186630608Y-109992608D01*
X186805183Y-109779887D01*
X186934904Y-109537195D01*
X187014786Y-109273860D01*
X187041759Y-109000000D01*
X187014786Y-108726140D01*
X186934904Y-108462805D01*
X186805183Y-108220113D01*
X186630608Y-108007392D01*
X186614337Y-107994039D01*
X186762135Y-107830330D01*
X186902524Y-107595068D01*
X186992220Y-107343070D01*
X186869720Y-107127000D01*
X185627000Y-107127000D01*
X185627000Y-107147000D01*
X185373000Y-107147000D01*
X185373000Y-107127000D01*
X184130280Y-107127000D01*
X184007780Y-107343070D01*
X184097476Y-107595068D01*
X184237865Y-107830330D01*
X184385663Y-107994039D01*
X184369392Y-108007392D01*
X184194817Y-108220113D01*
X184065096Y-108462805D01*
X183985214Y-108726140D01*
X183958241Y-109000000D01*
X179710000Y-109000000D01*
X179710000Y-106656930D01*
X184007780Y-106656930D01*
X184130280Y-106873000D01*
X185373000Y-106873000D01*
X185373000Y-105761251D01*
X185627000Y-105761251D01*
X185627000Y-106873000D01*
X186869720Y-106873000D01*
X186992220Y-106656930D01*
X186902524Y-106404932D01*
X186762135Y-106169670D01*
X186578546Y-105966317D01*
X186358812Y-105802688D01*
X186111378Y-105685071D01*
X185845752Y-105617986D01*
X185627000Y-105761251D01*
X185373000Y-105761251D01*
X185154248Y-105617986D01*
X184888622Y-105685071D01*
X184641188Y-105802688D01*
X184421454Y-105966317D01*
X184237865Y-106169670D01*
X184097476Y-106404932D01*
X184007780Y-106656930D01*
X179710000Y-106656930D01*
X179710000Y-103663974D01*
X179841637Y-103860983D01*
X180139017Y-104158363D01*
X180488698Y-104392012D01*
X180877244Y-104552953D01*
X181289721Y-104635000D01*
X181710279Y-104635000D01*
X182122756Y-104552953D01*
X182511302Y-104392012D01*
X182860983Y-104158363D01*
X183158363Y-103860983D01*
X183392012Y-103511302D01*
X183552953Y-103122756D01*
X183635000Y-102710279D01*
X183635000Y-102289721D01*
X183552953Y-101877244D01*
X183392012Y-101488698D01*
X183158363Y-101139017D01*
X182860983Y-100841637D01*
X182663974Y-100710000D01*
X195336026Y-100710000D01*
X195139017Y-100841637D01*
X195139017Y-100841637D01*
G37*
X195139017Y-100841637D02*
X194841637Y-101139017D01*
X194607988Y-101488698D01*
X194447047Y-101877244D01*
X194365000Y-102289721D01*
X194365000Y-102710279D01*
X194447047Y-103122756D01*
X194607988Y-103511302D01*
X194841637Y-103860983D01*
X195139017Y-104158363D01*
X195488698Y-104392012D01*
X195877244Y-104552953D01*
X196289721Y-104635000D01*
X196710279Y-104635000D01*
X197122756Y-104552953D01*
X197511302Y-104392012D01*
X197860983Y-104158363D01*
X198158363Y-103860983D01*
X198290000Y-103663974D01*
X198290001Y-116336027D01*
X198158363Y-116139017D01*
X197860983Y-115841637D01*
X197511302Y-115607988D01*
X197122756Y-115447047D01*
X196710279Y-115365000D01*
X196289721Y-115365000D01*
X195877244Y-115447047D01*
X195488698Y-115607988D01*
X195139017Y-115841637D01*
X194841637Y-116139017D01*
X194607988Y-116488698D01*
X194447047Y-116877244D01*
X194365000Y-117289721D01*
X194365000Y-117710279D01*
X194447047Y-118122756D01*
X194607988Y-118511302D01*
X194841637Y-118860983D01*
X195139017Y-119158363D01*
X195336026Y-119290000D01*
X182663974Y-119290000D01*
X182860983Y-119158363D01*
X183158363Y-118860983D01*
X183392012Y-118511302D01*
X183552953Y-118122756D01*
X183635000Y-117710279D01*
X183635000Y-117289721D01*
X183552953Y-116877244D01*
X183392012Y-116488698D01*
X183158363Y-116139017D01*
X182860983Y-115841637D01*
X182511302Y-115607988D01*
X182122756Y-115447047D01*
X181710279Y-115365000D01*
X181289721Y-115365000D01*
X180877244Y-115447047D01*
X180488698Y-115607988D01*
X180139017Y-115841637D01*
X179841637Y-116139017D01*
X179710000Y-116336026D01*
X179710000Y-109000000D01*
X183958241Y-109000000D01*
X183985214Y-109273860D01*
X184065096Y-109537195D01*
X184194817Y-109779887D01*
X184369392Y-109992608D01*
X184378399Y-110000000D01*
X184369392Y-110007392D01*
X184194817Y-110220113D01*
X184065096Y-110462805D01*
X183985214Y-110726140D01*
X183958241Y-111000000D01*
X183985214Y-111273860D01*
X184065096Y-111537195D01*
X184194817Y-111779887D01*
X184369392Y-111992608D01*
X184378399Y-112000000D01*
X184369392Y-112007392D01*
X184194817Y-112220113D01*
X184065096Y-112462805D01*
X183985214Y-112726140D01*
X183958241Y-113000000D01*
X183985214Y-113273860D01*
X184065096Y-113537195D01*
X184194817Y-113779887D01*
X184369392Y-113992608D01*
X184582113Y-114167183D01*
X184724082Y-114243067D01*
X184726359Y-114266187D01*
X184771246Y-114414160D01*
X184844138Y-114550533D01*
X184942236Y-114670064D01*
X185061767Y-114768162D01*
X185198140Y-114841054D01*
X185346113Y-114885941D01*
X185461439Y-114897300D01*
X185461440Y-114897300D01*
X185500000Y-114901098D01*
X185538561Y-114897300D01*
X192566847Y-114897300D01*
X192605400Y-114901097D01*
X192643953Y-114897300D01*
X192643961Y-114897300D01*
X192759287Y-114885941D01*
X192907260Y-114841054D01*
X193043633Y-114768162D01*
X193163164Y-114670064D01*
X193187747Y-114640110D01*
X193803110Y-114024747D01*
X193833064Y-114000164D01*
X193931162Y-113880633D01*
X194004054Y-113744260D01*
X194048942Y-113596287D01*
X194056320Y-113521374D01*
X194060300Y-113480961D01*
X194060300Y-113480956D01*
X194064097Y-113442400D01*
X194060300Y-113403844D01*
X194060300Y-108313856D01*
X194064097Y-108275300D01*
X194060300Y-108236740D01*
X194060300Y-108236739D01*
X194053449Y-108167183D01*
X194048942Y-108121413D01*
X194004054Y-107973440D01*
X193966356Y-107902912D01*
X193931162Y-107837067D01*
X193833064Y-107717536D01*
X193803111Y-107692954D01*
X193484350Y-107374193D01*
X193514786Y-107273860D01*
X193541759Y-107000000D01*
X193514786Y-106726140D01*
X193434904Y-106462805D01*
X193305183Y-106220113D01*
X193130608Y-106007392D01*
X192917887Y-105832817D01*
X192675195Y-105703096D01*
X192411860Y-105623214D01*
X192206625Y-105603000D01*
X191793375Y-105603000D01*
X191588140Y-105623214D01*
X191324805Y-105703096D01*
X191082113Y-105832817D01*
X190869392Y-106007392D01*
X190811000Y-106078543D01*
X190811000Y-105246911D01*
X190829937Y-105227974D01*
X190943205Y-105058456D01*
X191021226Y-104870098D01*
X191061000Y-104670139D01*
X191061000Y-104466261D01*
X191021226Y-104266302D01*
X190943205Y-104077944D01*
X190829937Y-103908426D01*
X190685774Y-103764263D01*
X190516256Y-103650995D01*
X190327898Y-103572974D01*
X190127939Y-103533200D01*
X189924061Y-103533200D01*
X189724102Y-103572974D01*
X189535744Y-103650995D01*
X189366226Y-103764263D01*
X189222063Y-103908426D01*
X189108795Y-104077944D01*
X189030774Y-104266302D01*
X188991000Y-104466261D01*
X188991000Y-104670139D01*
X189030774Y-104870098D01*
X189108795Y-105058456D01*
X189222063Y-105227974D01*
X189241001Y-105246912D01*
X189241000Y-106987500D01*
X189237203Y-107026112D01*
X189244436Y-107099447D01*
X189252359Y-107179886D01*
X189252375Y-107179940D01*
X189252381Y-107179997D01*
X189274386Y-107252498D01*
X189297246Y-107327859D01*
X189297274Y-107327912D01*
X189297290Y-107327964D01*
X189302477Y-107337666D01*
X186631574Y-110008569D01*
X186630608Y-110007392D01*
X186621601Y-110000000D01*
X186630608Y-109992608D01*
X186805183Y-109779887D01*
X186934904Y-109537195D01*
X187014786Y-109273860D01*
X187041759Y-109000000D01*
X187014786Y-108726140D01*
X186934904Y-108462805D01*
X186805183Y-108220113D01*
X186630608Y-108007392D01*
X186614337Y-107994039D01*
X186762135Y-107830330D01*
X186902524Y-107595068D01*
X186992220Y-107343070D01*
X186869720Y-107127000D01*
X185627000Y-107127000D01*
X185627000Y-107147000D01*
X185373000Y-107147000D01*
X185373000Y-107127000D01*
X184130280Y-107127000D01*
X184007780Y-107343070D01*
X184097476Y-107595068D01*
X184237865Y-107830330D01*
X184385663Y-107994039D01*
X184369392Y-108007392D01*
X184194817Y-108220113D01*
X184065096Y-108462805D01*
X183985214Y-108726140D01*
X183958241Y-109000000D01*
X179710000Y-109000000D01*
X179710000Y-106656930D01*
X184007780Y-106656930D01*
X184130280Y-106873000D01*
X185373000Y-106873000D01*
X185373000Y-105761251D01*
X185627000Y-105761251D01*
X185627000Y-106873000D01*
X186869720Y-106873000D01*
X186992220Y-106656930D01*
X186902524Y-106404932D01*
X186762135Y-106169670D01*
X186578546Y-105966317D01*
X186358812Y-105802688D01*
X186111378Y-105685071D01*
X185845752Y-105617986D01*
X185627000Y-105761251D01*
X185373000Y-105761251D01*
X185154248Y-105617986D01*
X184888622Y-105685071D01*
X184641188Y-105802688D01*
X184421454Y-105966317D01*
X184237865Y-106169670D01*
X184097476Y-106404932D01*
X184007780Y-106656930D01*
X179710000Y-106656930D01*
X179710000Y-103663974D01*
X179841637Y-103860983D01*
X180139017Y-104158363D01*
X180488698Y-104392012D01*
X180877244Y-104552953D01*
X181289721Y-104635000D01*
X181710279Y-104635000D01*
X182122756Y-104552953D01*
X182511302Y-104392012D01*
X182860983Y-104158363D01*
X183158363Y-103860983D01*
X183392012Y-103511302D01*
X183552953Y-103122756D01*
X183635000Y-102710279D01*
X183635000Y-102289721D01*
X183552953Y-101877244D01*
X183392012Y-101488698D01*
X183158363Y-101139017D01*
X182860983Y-100841637D01*
X182663974Y-100710000D01*
X195336026Y-100710000D01*
X195139017Y-100841637D01*
G36*
X190515663Y-108625763D02*
G01*
X190485214Y-108726140D01*
X190458241Y-109000000D01*
X190485214Y-109273860D01*
X190565096Y-109537195D01*
X190694817Y-109779887D01*
X190869392Y-109992608D01*
X190878399Y-110000000D01*
X190869392Y-110007392D01*
X190694817Y-110220113D01*
X190565096Y-110462805D01*
X190485214Y-110726140D01*
X190458241Y-111000000D01*
X190485214Y-111273860D01*
X190565096Y-111537195D01*
X190694817Y-111779887D01*
X190869392Y-111992608D01*
X190885663Y-112005961D01*
X190737865Y-112169670D01*
X190597476Y-112404932D01*
X190507780Y-112656930D01*
X190630280Y-112873000D01*
X191873000Y-112873000D01*
X191873000Y-112853000D01*
X192127000Y-112853000D01*
X192127000Y-112873000D01*
X192147000Y-112873000D01*
X192147000Y-113127000D01*
X192127000Y-113127000D01*
X192127000Y-113147000D01*
X191873000Y-113147000D01*
X191873000Y-113127000D01*
X190630280Y-113127000D01*
X190516721Y-113327300D01*
X186998575Y-113327300D01*
X187014786Y-113273860D01*
X187041759Y-113000000D01*
X187014786Y-112726140D01*
X186934904Y-112462805D01*
X186805183Y-112220113D01*
X186630608Y-112007392D01*
X186621601Y-112000000D01*
X186630608Y-111992608D01*
X186802053Y-111783701D01*
X186904187Y-111773641D01*
X187052160Y-111728754D01*
X187188533Y-111655862D01*
X187308064Y-111557764D01*
X187332647Y-111527810D01*
X190375183Y-108485274D01*
X190515663Y-108625763D01*
X190515663Y-108625763D01*
G37*
X190515663Y-108625763D02*
X190485214Y-108726140D01*
X190458241Y-109000000D01*
X190485214Y-109273860D01*
X190565096Y-109537195D01*
X190694817Y-109779887D01*
X190869392Y-109992608D01*
X190878399Y-110000000D01*
X190869392Y-110007392D01*
X190694817Y-110220113D01*
X190565096Y-110462805D01*
X190485214Y-110726140D01*
X190458241Y-111000000D01*
X190485214Y-111273860D01*
X190565096Y-111537195D01*
X190694817Y-111779887D01*
X190869392Y-111992608D01*
X190885663Y-112005961D01*
X190737865Y-112169670D01*
X190597476Y-112404932D01*
X190507780Y-112656930D01*
X190630280Y-112873000D01*
X191873000Y-112873000D01*
X191873000Y-112853000D01*
X192127000Y-112853000D01*
X192127000Y-112873000D01*
X192147000Y-112873000D01*
X192147000Y-113127000D01*
X192127000Y-113127000D01*
X192127000Y-113147000D01*
X191873000Y-113147000D01*
X191873000Y-113127000D01*
X190630280Y-113127000D01*
X190516721Y-113327300D01*
X186998575Y-113327300D01*
X187014786Y-113273860D01*
X187041759Y-113000000D01*
X187014786Y-112726140D01*
X186934904Y-112462805D01*
X186805183Y-112220113D01*
X186630608Y-112007392D01*
X186621601Y-112000000D01*
X186630608Y-111992608D01*
X186802053Y-111783701D01*
X186904187Y-111773641D01*
X187052160Y-111728754D01*
X187188533Y-111655862D01*
X187308064Y-111557764D01*
X187332647Y-111527810D01*
X190375183Y-108485274D01*
X190515663Y-108625763D01*
M02*
