G04 #@! TF.GenerationSoftware,KiCad,Pcbnew,(5.1.2)-1*
G04 #@! TF.CreationDate,2021-08-30T19:49:36+09:00*
G04 #@! TF.ProjectId,IR,49522e6b-6963-4616-945f-706362585858,v1.0*
G04 #@! TF.SameCoordinates,Original*
G04 #@! TF.FileFunction,Copper,L1,Top*
G04 #@! TF.FilePolarity,Positive*
%FSLAX46Y46*%
G04 Gerber Fmt 4.6, Leading zero omitted, Abs format (unit mm)*
G04 Created by KiCad (PCBNEW (5.1.2)-1) date 2021-08-30 19:49:36*
%MOMM*%
%LPD*%
G04 APERTURE LIST*
%ADD10R,1.000000X1.100000*%
%ADD11O,1.800000X1.524000*%
%ADD12R,0.850000X0.400000*%
%ADD13C,0.800000*%
%ADD14C,0.300000*%
%ADD15C,0.254000*%
G04 APERTURE END LIST*
D10*
X185500000Y-102150000D03*
X185500000Y-103850000D03*
D11*
X185500000Y-113000000D03*
X185500000Y-111000000D03*
X185500000Y-109000000D03*
X185500000Y-107000000D03*
X192000000Y-107000000D03*
X192000000Y-109000000D03*
X192000000Y-111000000D03*
X192000000Y-113000000D03*
D10*
X192000000Y-102150000D03*
X192000000Y-103850000D03*
D12*
X187825000Y-102350000D03*
X187825000Y-103000000D03*
X187825000Y-103650000D03*
X189675000Y-103000000D03*
X189675000Y-103650000D03*
X189675000Y-102350000D03*
D13*
X187750000Y-113000000D03*
X196250000Y-109500000D03*
X187500000Y-105000000D03*
X190000000Y-101250000D03*
X182500000Y-107000000D03*
X190026000Y-104568200D03*
D14*
X185500000Y-102150000D02*
X186350300Y-102150000D01*
X185500000Y-102150000D02*
X184649700Y-102150000D01*
X192850300Y-104595200D02*
X192850300Y-102150000D01*
X192431700Y-105013800D02*
X192850300Y-104595200D01*
X192166200Y-105013800D02*
X192431700Y-105013800D01*
X190717000Y-106463000D02*
X192166200Y-105013800D01*
X190717000Y-109717000D02*
X190717000Y-106463000D01*
X192000000Y-111000000D02*
X190717000Y-109717000D01*
X192000000Y-102150000D02*
X192850300Y-102150000D01*
X186550300Y-102350000D02*
X186350300Y-102150000D01*
X187825000Y-102350000D02*
X186550300Y-102350000D01*
X184237600Y-107737600D02*
X185500000Y-109000000D01*
X184237600Y-102562100D02*
X184237600Y-107737600D01*
X184649700Y-102150000D02*
X184237600Y-102562100D01*
X193259600Y-112259600D02*
X192000000Y-111000000D01*
X193259600Y-113493300D02*
X193259600Y-112259600D01*
X192625200Y-114127700D02*
X193259600Y-113493300D01*
X190627700Y-114127700D02*
X192625200Y-114127700D01*
X185500000Y-109000000D02*
X190627700Y-114127700D01*
X187750000Y-113000000D02*
X187750000Y-116250000D01*
X196250000Y-112750000D02*
X196250000Y-109500000D01*
X193250000Y-115750000D02*
X196250000Y-112750000D01*
X192500000Y-115750000D02*
X193250000Y-115750000D01*
X192250000Y-115500000D02*
X192500000Y-115750000D01*
X188500000Y-115500000D02*
X192250000Y-115500000D01*
X187750000Y-116250000D02*
X188500000Y-115500000D01*
X185500000Y-103850000D02*
X186650000Y-103850000D01*
X187500000Y-104700000D02*
X187500000Y-105000000D01*
X186650000Y-103850000D02*
X187500000Y-104700000D01*
X188750000Y-103000000D02*
X188750000Y-101250000D01*
X188750000Y-101250000D02*
X190000000Y-101250000D01*
X189675000Y-103000000D02*
X188750000Y-103000000D01*
X188750000Y-103000000D02*
X187825000Y-103000000D01*
X187049700Y-103150600D02*
X186350300Y-103850000D01*
X187049700Y-103000000D02*
X187049700Y-103150600D01*
X187825000Y-103000000D02*
X187049700Y-103000000D01*
X186750300Y-107750300D02*
X186750300Y-107000000D01*
X192000000Y-113000000D02*
X186750300Y-107750300D01*
X186125200Y-107000000D02*
X186125200Y-103850000D01*
X185500000Y-107000000D02*
X186125200Y-107000000D01*
X186125200Y-107000000D02*
X186750300Y-107000000D01*
X185500000Y-103850000D02*
X186125200Y-103850000D01*
X186125200Y-103850000D02*
X186350300Y-103850000D01*
X192299500Y-105887700D02*
X192000000Y-105887700D01*
X193388400Y-104798800D02*
X192299500Y-105887700D01*
X193388400Y-101931100D02*
X193388400Y-104798800D01*
X192706900Y-101249600D02*
X193388400Y-101931100D01*
X191275500Y-101249600D02*
X192706900Y-101249600D01*
X190450300Y-102074800D02*
X191275500Y-101249600D01*
X190450300Y-102350000D02*
X190450300Y-102074800D01*
X189675000Y-102350000D02*
X190450300Y-102350000D01*
X192000000Y-107000000D02*
X192000000Y-105887700D01*
X190450300Y-104143900D02*
X190026000Y-104568200D01*
X190450300Y-103650000D02*
X190450300Y-104143900D01*
X189675000Y-103650000D02*
X190450300Y-103650000D01*
X191149700Y-104509000D02*
X191149700Y-103850000D01*
X190326100Y-105332600D02*
X191149700Y-104509000D01*
X189701400Y-105332600D02*
X190326100Y-105332600D01*
X188600300Y-104231500D02*
X189701400Y-105332600D01*
X188600300Y-103650000D02*
X188600300Y-104231500D01*
X187825000Y-103650000D02*
X188600300Y-103650000D01*
X192000000Y-103850000D02*
X191149700Y-103850000D01*
D15*
G36*
X195139017Y-100841637D02*
G01*
X194841637Y-101139017D01*
X194607988Y-101488698D01*
X194447047Y-101877244D01*
X194365000Y-102289721D01*
X194365000Y-102710279D01*
X194447047Y-103122756D01*
X194607988Y-103511302D01*
X194841637Y-103860983D01*
X195139017Y-104158363D01*
X195488698Y-104392012D01*
X195877244Y-104552953D01*
X196289721Y-104635000D01*
X196710279Y-104635000D01*
X197122756Y-104552953D01*
X197511302Y-104392012D01*
X197860983Y-104158363D01*
X198158363Y-103860983D01*
X198290000Y-103663974D01*
X198290001Y-116336027D01*
X198158363Y-116139017D01*
X197860983Y-115841637D01*
X197511302Y-115607988D01*
X197122756Y-115447047D01*
X196710279Y-115365000D01*
X196289721Y-115365000D01*
X195877244Y-115447047D01*
X195488698Y-115607988D01*
X195139017Y-115841637D01*
X194841637Y-116139017D01*
X194607988Y-116488698D01*
X194447047Y-116877244D01*
X194365000Y-117289721D01*
X194365000Y-117710279D01*
X194447047Y-118122756D01*
X194607988Y-118511302D01*
X194841637Y-118860983D01*
X195139017Y-119158363D01*
X195336026Y-119290000D01*
X182663974Y-119290000D01*
X182860983Y-119158363D01*
X183158363Y-118860983D01*
X183392012Y-118511302D01*
X183552953Y-118122756D01*
X183635000Y-117710279D01*
X183635000Y-117289721D01*
X183552953Y-116877244D01*
X183392012Y-116488698D01*
X183158363Y-116139017D01*
X182860983Y-115841637D01*
X182511302Y-115607988D01*
X182122756Y-115447047D01*
X181710279Y-115365000D01*
X181289721Y-115365000D01*
X180877244Y-115447047D01*
X180488698Y-115607988D01*
X180139017Y-115841637D01*
X179841637Y-116139017D01*
X179710000Y-116336026D01*
X179710000Y-103663974D01*
X179841637Y-103860983D01*
X180139017Y-104158363D01*
X180488698Y-104392012D01*
X180877244Y-104552953D01*
X181289721Y-104635000D01*
X181710279Y-104635000D01*
X182122756Y-104552953D01*
X182511302Y-104392012D01*
X182860983Y-104158363D01*
X183158363Y-103860983D01*
X183392012Y-103511302D01*
X183452600Y-103365029D01*
X183452601Y-107699037D01*
X183448803Y-107737600D01*
X183463959Y-107891486D01*
X183508846Y-108039459D01*
X183508847Y-108039460D01*
X183581739Y-108175833D01*
X183599367Y-108197312D01*
X183655255Y-108265412D01*
X183655259Y-108265416D01*
X183679837Y-108295364D01*
X183709785Y-108319942D01*
X184015650Y-108625807D01*
X183985214Y-108726140D01*
X183958241Y-109000000D01*
X183985214Y-109273860D01*
X184065096Y-109537195D01*
X184194817Y-109779887D01*
X184369392Y-109992608D01*
X184378399Y-110000000D01*
X184369392Y-110007392D01*
X184194817Y-110220113D01*
X184065096Y-110462805D01*
X183985214Y-110726140D01*
X183958241Y-111000000D01*
X183985214Y-111273860D01*
X184065096Y-111537195D01*
X184194817Y-111779887D01*
X184369392Y-111992608D01*
X184378399Y-112000000D01*
X184369392Y-112007392D01*
X184194817Y-112220113D01*
X184065096Y-112462805D01*
X183985214Y-112726140D01*
X183958241Y-113000000D01*
X183985214Y-113273860D01*
X184065096Y-113537195D01*
X184194817Y-113779887D01*
X184369392Y-113992608D01*
X184582113Y-114167183D01*
X184824805Y-114296904D01*
X185088140Y-114376786D01*
X185293375Y-114397000D01*
X185706625Y-114397000D01*
X185911860Y-114376786D01*
X186175195Y-114296904D01*
X186417887Y-114167183D01*
X186630608Y-113992608D01*
X186805183Y-113779887D01*
X186934904Y-113537195D01*
X187014786Y-113273860D01*
X187041759Y-113000000D01*
X187014786Y-112726140D01*
X186934904Y-112462805D01*
X186805183Y-112220113D01*
X186630608Y-112007392D01*
X186621601Y-112000000D01*
X186630608Y-111992608D01*
X186805183Y-111779887D01*
X186932164Y-111542321D01*
X190045353Y-114655510D01*
X190069936Y-114685464D01*
X190189467Y-114783562D01*
X190325840Y-114856454D01*
X190473813Y-114901342D01*
X190548726Y-114908720D01*
X190589139Y-114912700D01*
X190589144Y-114912700D01*
X190627700Y-114916497D01*
X190666256Y-114912700D01*
X192586647Y-114912700D01*
X192625200Y-114916497D01*
X192663753Y-114912700D01*
X192663761Y-114912700D01*
X192779087Y-114901341D01*
X192927060Y-114856454D01*
X193063433Y-114783562D01*
X193182964Y-114685464D01*
X193207546Y-114655511D01*
X193787416Y-114075641D01*
X193817364Y-114051064D01*
X193915462Y-113931533D01*
X193988354Y-113795160D01*
X194033241Y-113647187D01*
X194044600Y-113531861D01*
X194044600Y-113531854D01*
X194048397Y-113493301D01*
X194044600Y-113454748D01*
X194044600Y-112298152D01*
X194048397Y-112259599D01*
X194044600Y-112221046D01*
X194044600Y-112221039D01*
X194033241Y-112105713D01*
X193988354Y-111957740D01*
X193915462Y-111821367D01*
X193817364Y-111701836D01*
X193787415Y-111677258D01*
X193484350Y-111374193D01*
X193514786Y-111273860D01*
X193541759Y-111000000D01*
X193514786Y-110726140D01*
X193434904Y-110462805D01*
X193305183Y-110220113D01*
X193130608Y-110007392D01*
X193121601Y-110000000D01*
X193130608Y-109992608D01*
X193305183Y-109779887D01*
X193434904Y-109537195D01*
X193514786Y-109273860D01*
X193541759Y-109000000D01*
X193514786Y-108726140D01*
X193434904Y-108462805D01*
X193305183Y-108220113D01*
X193130608Y-108007392D01*
X193121601Y-108000000D01*
X193130608Y-107992608D01*
X193305183Y-107779887D01*
X193434904Y-107537195D01*
X193514786Y-107273860D01*
X193541759Y-107000000D01*
X193514786Y-106726140D01*
X193434904Y-106462805D01*
X193305183Y-106220113D01*
X193202439Y-106094918D01*
X193916215Y-105381142D01*
X193946164Y-105356564D01*
X193979735Y-105315659D01*
X194006832Y-105282641D01*
X194044262Y-105237033D01*
X194117154Y-105100660D01*
X194139859Y-105025812D01*
X194162041Y-104952688D01*
X194168475Y-104887362D01*
X194173400Y-104837361D01*
X194173400Y-104837354D01*
X194177197Y-104798801D01*
X194173400Y-104760248D01*
X194173400Y-101969656D01*
X194177197Y-101931100D01*
X194173400Y-101892540D01*
X194173400Y-101892539D01*
X194165011Y-101807364D01*
X194162042Y-101777213D01*
X194117154Y-101629240D01*
X194101525Y-101600000D01*
X194044262Y-101492867D01*
X193946164Y-101373336D01*
X193916211Y-101348754D01*
X193289247Y-100721790D01*
X193279571Y-100710000D01*
X195336026Y-100710000D01*
X195139017Y-100841637D01*
X195139017Y-100841637D01*
G37*
X195139017Y-100841637D02*
X194841637Y-101139017D01*
X194607988Y-101488698D01*
X194447047Y-101877244D01*
X194365000Y-102289721D01*
X194365000Y-102710279D01*
X194447047Y-103122756D01*
X194607988Y-103511302D01*
X194841637Y-103860983D01*
X195139017Y-104158363D01*
X195488698Y-104392012D01*
X195877244Y-104552953D01*
X196289721Y-104635000D01*
X196710279Y-104635000D01*
X197122756Y-104552953D01*
X197511302Y-104392012D01*
X197860983Y-104158363D01*
X198158363Y-103860983D01*
X198290000Y-103663974D01*
X198290001Y-116336027D01*
X198158363Y-116139017D01*
X197860983Y-115841637D01*
X197511302Y-115607988D01*
X197122756Y-115447047D01*
X196710279Y-115365000D01*
X196289721Y-115365000D01*
X195877244Y-115447047D01*
X195488698Y-115607988D01*
X195139017Y-115841637D01*
X194841637Y-116139017D01*
X194607988Y-116488698D01*
X194447047Y-116877244D01*
X194365000Y-117289721D01*
X194365000Y-117710279D01*
X194447047Y-118122756D01*
X194607988Y-118511302D01*
X194841637Y-118860983D01*
X195139017Y-119158363D01*
X195336026Y-119290000D01*
X182663974Y-119290000D01*
X182860983Y-119158363D01*
X183158363Y-118860983D01*
X183392012Y-118511302D01*
X183552953Y-118122756D01*
X183635000Y-117710279D01*
X183635000Y-117289721D01*
X183552953Y-116877244D01*
X183392012Y-116488698D01*
X183158363Y-116139017D01*
X182860983Y-115841637D01*
X182511302Y-115607988D01*
X182122756Y-115447047D01*
X181710279Y-115365000D01*
X181289721Y-115365000D01*
X180877244Y-115447047D01*
X180488698Y-115607988D01*
X180139017Y-115841637D01*
X179841637Y-116139017D01*
X179710000Y-116336026D01*
X179710000Y-103663974D01*
X179841637Y-103860983D01*
X180139017Y-104158363D01*
X180488698Y-104392012D01*
X180877244Y-104552953D01*
X181289721Y-104635000D01*
X181710279Y-104635000D01*
X182122756Y-104552953D01*
X182511302Y-104392012D01*
X182860983Y-104158363D01*
X183158363Y-103860983D01*
X183392012Y-103511302D01*
X183452600Y-103365029D01*
X183452601Y-107699037D01*
X183448803Y-107737600D01*
X183463959Y-107891486D01*
X183508846Y-108039459D01*
X183508847Y-108039460D01*
X183581739Y-108175833D01*
X183599367Y-108197312D01*
X183655255Y-108265412D01*
X183655259Y-108265416D01*
X183679837Y-108295364D01*
X183709785Y-108319942D01*
X184015650Y-108625807D01*
X183985214Y-108726140D01*
X183958241Y-109000000D01*
X183985214Y-109273860D01*
X184065096Y-109537195D01*
X184194817Y-109779887D01*
X184369392Y-109992608D01*
X184378399Y-110000000D01*
X184369392Y-110007392D01*
X184194817Y-110220113D01*
X184065096Y-110462805D01*
X183985214Y-110726140D01*
X183958241Y-111000000D01*
X183985214Y-111273860D01*
X184065096Y-111537195D01*
X184194817Y-111779887D01*
X184369392Y-111992608D01*
X184378399Y-112000000D01*
X184369392Y-112007392D01*
X184194817Y-112220113D01*
X184065096Y-112462805D01*
X183985214Y-112726140D01*
X183958241Y-113000000D01*
X183985214Y-113273860D01*
X184065096Y-113537195D01*
X184194817Y-113779887D01*
X184369392Y-113992608D01*
X184582113Y-114167183D01*
X184824805Y-114296904D01*
X185088140Y-114376786D01*
X185293375Y-114397000D01*
X185706625Y-114397000D01*
X185911860Y-114376786D01*
X186175195Y-114296904D01*
X186417887Y-114167183D01*
X186630608Y-113992608D01*
X186805183Y-113779887D01*
X186934904Y-113537195D01*
X187014786Y-113273860D01*
X187041759Y-113000000D01*
X187014786Y-112726140D01*
X186934904Y-112462805D01*
X186805183Y-112220113D01*
X186630608Y-112007392D01*
X186621601Y-112000000D01*
X186630608Y-111992608D01*
X186805183Y-111779887D01*
X186932164Y-111542321D01*
X190045353Y-114655510D01*
X190069936Y-114685464D01*
X190189467Y-114783562D01*
X190325840Y-114856454D01*
X190473813Y-114901342D01*
X190548726Y-114908720D01*
X190589139Y-114912700D01*
X190589144Y-114912700D01*
X190627700Y-114916497D01*
X190666256Y-114912700D01*
X192586647Y-114912700D01*
X192625200Y-114916497D01*
X192663753Y-114912700D01*
X192663761Y-114912700D01*
X192779087Y-114901341D01*
X192927060Y-114856454D01*
X193063433Y-114783562D01*
X193182964Y-114685464D01*
X193207546Y-114655511D01*
X193787416Y-114075641D01*
X193817364Y-114051064D01*
X193915462Y-113931533D01*
X193988354Y-113795160D01*
X194033241Y-113647187D01*
X194044600Y-113531861D01*
X194044600Y-113531854D01*
X194048397Y-113493301D01*
X194044600Y-113454748D01*
X194044600Y-112298152D01*
X194048397Y-112259599D01*
X194044600Y-112221046D01*
X194044600Y-112221039D01*
X194033241Y-112105713D01*
X193988354Y-111957740D01*
X193915462Y-111821367D01*
X193817364Y-111701836D01*
X193787415Y-111677258D01*
X193484350Y-111374193D01*
X193514786Y-111273860D01*
X193541759Y-111000000D01*
X193514786Y-110726140D01*
X193434904Y-110462805D01*
X193305183Y-110220113D01*
X193130608Y-110007392D01*
X193121601Y-110000000D01*
X193130608Y-109992608D01*
X193305183Y-109779887D01*
X193434904Y-109537195D01*
X193514786Y-109273860D01*
X193541759Y-109000000D01*
X193514786Y-108726140D01*
X193434904Y-108462805D01*
X193305183Y-108220113D01*
X193130608Y-108007392D01*
X193121601Y-108000000D01*
X193130608Y-107992608D01*
X193305183Y-107779887D01*
X193434904Y-107537195D01*
X193514786Y-107273860D01*
X193541759Y-107000000D01*
X193514786Y-106726140D01*
X193434904Y-106462805D01*
X193305183Y-106220113D01*
X193202439Y-106094918D01*
X193916215Y-105381142D01*
X193946164Y-105356564D01*
X193979735Y-105315659D01*
X194006832Y-105282641D01*
X194044262Y-105237033D01*
X194117154Y-105100660D01*
X194139859Y-105025812D01*
X194162041Y-104952688D01*
X194168475Y-104887362D01*
X194173400Y-104837361D01*
X194173400Y-104837354D01*
X194177197Y-104798801D01*
X194173400Y-104760248D01*
X194173400Y-101969656D01*
X194177197Y-101931100D01*
X194173400Y-101892540D01*
X194173400Y-101892539D01*
X194165011Y-101807364D01*
X194162042Y-101777213D01*
X194117154Y-101629240D01*
X194101525Y-101600000D01*
X194044262Y-101492867D01*
X193946164Y-101373336D01*
X193916211Y-101348754D01*
X193289247Y-100721790D01*
X193279571Y-100710000D01*
X195336026Y-100710000D01*
X195139017Y-100841637D01*
G36*
X192127000Y-112873000D02*
G01*
X192147000Y-112873000D01*
X192147000Y-113127000D01*
X192127000Y-113127000D01*
X192127000Y-113147000D01*
X191873000Y-113147000D01*
X191873000Y-113127000D01*
X191853000Y-113127000D01*
X191853000Y-112873000D01*
X191873000Y-112873000D01*
X191873000Y-112853000D01*
X192127000Y-112853000D01*
X192127000Y-112873000D01*
X192127000Y-112873000D01*
G37*
X192127000Y-112873000D02*
X192147000Y-112873000D01*
X192147000Y-113127000D01*
X192127000Y-113127000D01*
X192127000Y-113147000D01*
X191873000Y-113147000D01*
X191873000Y-113127000D01*
X191853000Y-113127000D01*
X191853000Y-112873000D01*
X191873000Y-112873000D01*
X191873000Y-112853000D01*
X192127000Y-112853000D01*
X192127000Y-112873000D01*
G36*
X186832968Y-103163782D02*
G01*
X186765000Y-103231750D01*
X186775217Y-103322127D01*
X186774188Y-103325518D01*
X186761928Y-103450000D01*
X186761928Y-103850000D01*
X186774188Y-103974482D01*
X186810498Y-104094180D01*
X186869463Y-104204494D01*
X186948815Y-104301185D01*
X187045506Y-104380537D01*
X187155820Y-104439502D01*
X187275518Y-104475812D01*
X187400000Y-104488072D01*
X187857808Y-104488072D01*
X187871546Y-104533360D01*
X187944439Y-104669733D01*
X187979078Y-104711940D01*
X188017955Y-104759312D01*
X188017959Y-104759316D01*
X188042537Y-104789264D01*
X188072485Y-104813842D01*
X189119053Y-105860410D01*
X189143636Y-105890364D01*
X189263167Y-105988462D01*
X189399540Y-106061354D01*
X189547513Y-106106242D01*
X189622426Y-106113620D01*
X189662839Y-106117600D01*
X189662844Y-106117600D01*
X189701400Y-106121397D01*
X189739956Y-106117600D01*
X190011519Y-106117600D01*
X189988246Y-106161141D01*
X189943359Y-106309114D01*
X189928203Y-106463000D01*
X189932001Y-106501563D01*
X189932000Y-109678447D01*
X189928203Y-109717000D01*
X189932000Y-109755553D01*
X189932000Y-109755560D01*
X189943359Y-109870886D01*
X189988246Y-110018859D01*
X190061138Y-110155232D01*
X190159236Y-110274764D01*
X190189190Y-110299347D01*
X190515650Y-110625807D01*
X190485214Y-110726140D01*
X190458241Y-111000000D01*
X190485214Y-111273860D01*
X190565096Y-111537195D01*
X190694817Y-111779887D01*
X190869392Y-111992608D01*
X190885663Y-112005961D01*
X190737865Y-112169670D01*
X190597476Y-112404932D01*
X190507780Y-112656930D01*
X190630279Y-112872998D01*
X190483155Y-112872998D01*
X186984350Y-109374193D01*
X187014786Y-109273860D01*
X187041759Y-109000000D01*
X187014786Y-108726140D01*
X186934904Y-108462805D01*
X186805183Y-108220113D01*
X186630608Y-108007392D01*
X186614337Y-107994039D01*
X186762135Y-107830330D01*
X186902524Y-107595068D01*
X186992220Y-107343070D01*
X186869720Y-107127000D01*
X185627000Y-107127000D01*
X185627000Y-107147000D01*
X185373000Y-107147000D01*
X185373000Y-107127000D01*
X185353000Y-107127000D01*
X185353000Y-106873000D01*
X185373000Y-106873000D01*
X185373000Y-105761251D01*
X185627000Y-105761251D01*
X185627000Y-106873000D01*
X186869720Y-106873000D01*
X186992220Y-106656930D01*
X186902524Y-106404932D01*
X186762135Y-106169670D01*
X186578546Y-105966317D01*
X186358812Y-105802688D01*
X186111378Y-105685071D01*
X185845752Y-105617986D01*
X185627000Y-105761251D01*
X185373000Y-105761251D01*
X185154248Y-105617986D01*
X185022600Y-105651234D01*
X185022600Y-105037748D01*
X185214250Y-105035000D01*
X185373000Y-104876250D01*
X185373000Y-103977000D01*
X185627000Y-103977000D01*
X185627000Y-104876250D01*
X185785750Y-105035000D01*
X186000000Y-105038072D01*
X186124482Y-105025812D01*
X186244180Y-104989502D01*
X186354494Y-104930537D01*
X186451185Y-104851185D01*
X186530537Y-104754494D01*
X186589502Y-104644180D01*
X186625812Y-104524482D01*
X186638072Y-104400000D01*
X186635000Y-104135750D01*
X186476250Y-103977000D01*
X185627000Y-103977000D01*
X185373000Y-103977000D01*
X185353000Y-103977000D01*
X185353000Y-103723000D01*
X185373000Y-103723000D01*
X185373000Y-103703000D01*
X185627000Y-103703000D01*
X185627000Y-103723000D01*
X186476250Y-103723000D01*
X186635000Y-103564250D01*
X186638072Y-103300000D01*
X186625812Y-103175518D01*
X186613521Y-103135000D01*
X186848353Y-103135000D01*
X186832968Y-103163782D01*
X186832968Y-103163782D01*
G37*
X186832968Y-103163782D02*
X186765000Y-103231750D01*
X186775217Y-103322127D01*
X186774188Y-103325518D01*
X186761928Y-103450000D01*
X186761928Y-103850000D01*
X186774188Y-103974482D01*
X186810498Y-104094180D01*
X186869463Y-104204494D01*
X186948815Y-104301185D01*
X187045506Y-104380537D01*
X187155820Y-104439502D01*
X187275518Y-104475812D01*
X187400000Y-104488072D01*
X187857808Y-104488072D01*
X187871546Y-104533360D01*
X187944439Y-104669733D01*
X187979078Y-104711940D01*
X188017955Y-104759312D01*
X188017959Y-104759316D01*
X188042537Y-104789264D01*
X188072485Y-104813842D01*
X189119053Y-105860410D01*
X189143636Y-105890364D01*
X189263167Y-105988462D01*
X189399540Y-106061354D01*
X189547513Y-106106242D01*
X189622426Y-106113620D01*
X189662839Y-106117600D01*
X189662844Y-106117600D01*
X189701400Y-106121397D01*
X189739956Y-106117600D01*
X190011519Y-106117600D01*
X189988246Y-106161141D01*
X189943359Y-106309114D01*
X189928203Y-106463000D01*
X189932001Y-106501563D01*
X189932000Y-109678447D01*
X189928203Y-109717000D01*
X189932000Y-109755553D01*
X189932000Y-109755560D01*
X189943359Y-109870886D01*
X189988246Y-110018859D01*
X190061138Y-110155232D01*
X190159236Y-110274764D01*
X190189190Y-110299347D01*
X190515650Y-110625807D01*
X190485214Y-110726140D01*
X190458241Y-111000000D01*
X190485214Y-111273860D01*
X190565096Y-111537195D01*
X190694817Y-111779887D01*
X190869392Y-111992608D01*
X190885663Y-112005961D01*
X190737865Y-112169670D01*
X190597476Y-112404932D01*
X190507780Y-112656930D01*
X190630279Y-112872998D01*
X190483155Y-112872998D01*
X186984350Y-109374193D01*
X187014786Y-109273860D01*
X187041759Y-109000000D01*
X187014786Y-108726140D01*
X186934904Y-108462805D01*
X186805183Y-108220113D01*
X186630608Y-108007392D01*
X186614337Y-107994039D01*
X186762135Y-107830330D01*
X186902524Y-107595068D01*
X186992220Y-107343070D01*
X186869720Y-107127000D01*
X185627000Y-107127000D01*
X185627000Y-107147000D01*
X185373000Y-107147000D01*
X185373000Y-107127000D01*
X185353000Y-107127000D01*
X185353000Y-106873000D01*
X185373000Y-106873000D01*
X185373000Y-105761251D01*
X185627000Y-105761251D01*
X185627000Y-106873000D01*
X186869720Y-106873000D01*
X186992220Y-106656930D01*
X186902524Y-106404932D01*
X186762135Y-106169670D01*
X186578546Y-105966317D01*
X186358812Y-105802688D01*
X186111378Y-105685071D01*
X185845752Y-105617986D01*
X185627000Y-105761251D01*
X185373000Y-105761251D01*
X185154248Y-105617986D01*
X185022600Y-105651234D01*
X185022600Y-105037748D01*
X185214250Y-105035000D01*
X185373000Y-104876250D01*
X185373000Y-103977000D01*
X185627000Y-103977000D01*
X185627000Y-104876250D01*
X185785750Y-105035000D01*
X186000000Y-105038072D01*
X186124482Y-105025812D01*
X186244180Y-104989502D01*
X186354494Y-104930537D01*
X186451185Y-104851185D01*
X186530537Y-104754494D01*
X186589502Y-104644180D01*
X186625812Y-104524482D01*
X186638072Y-104400000D01*
X186635000Y-104135750D01*
X186476250Y-103977000D01*
X185627000Y-103977000D01*
X185373000Y-103977000D01*
X185353000Y-103977000D01*
X185353000Y-103723000D01*
X185373000Y-103723000D01*
X185373000Y-103703000D01*
X185627000Y-103703000D01*
X185627000Y-103723000D01*
X186476250Y-103723000D01*
X186635000Y-103564250D01*
X186638072Y-103300000D01*
X186625812Y-103175518D01*
X186613521Y-103135000D01*
X186848353Y-103135000D01*
X186832968Y-103163782D01*
G36*
X190693157Y-100721785D02*
G01*
X189922488Y-101492455D01*
X189898760Y-101511928D01*
X189250000Y-101511928D01*
X189125518Y-101524188D01*
X189005820Y-101560498D01*
X188895506Y-101619463D01*
X188798815Y-101698815D01*
X188750000Y-101758296D01*
X188701185Y-101698815D01*
X188604494Y-101619463D01*
X188494180Y-101560498D01*
X188374482Y-101524188D01*
X188250000Y-101511928D01*
X187400000Y-101511928D01*
X187275518Y-101524188D01*
X187155820Y-101560498D01*
X187147397Y-101565000D01*
X186874877Y-101565000D01*
X186788533Y-101494138D01*
X186652160Y-101421246D01*
X186605010Y-101406943D01*
X186589502Y-101355820D01*
X186530537Y-101245506D01*
X186451185Y-101148815D01*
X186354494Y-101069463D01*
X186244180Y-101010498D01*
X186124482Y-100974188D01*
X186000000Y-100961928D01*
X185000000Y-100961928D01*
X184875518Y-100974188D01*
X184755820Y-101010498D01*
X184645506Y-101069463D01*
X184548815Y-101148815D01*
X184469463Y-101245506D01*
X184410498Y-101355820D01*
X184394990Y-101406943D01*
X184347840Y-101421246D01*
X184211467Y-101494138D01*
X184091936Y-101592236D01*
X184067353Y-101622190D01*
X183709790Y-101979753D01*
X183679836Y-102004336D01*
X183598055Y-102103986D01*
X183552953Y-101877244D01*
X183392012Y-101488698D01*
X183158363Y-101139017D01*
X182860983Y-100841637D01*
X182663974Y-100710000D01*
X190702829Y-100710000D01*
X190693157Y-100721785D01*
X190693157Y-100721785D01*
G37*
X190693157Y-100721785D02*
X189922488Y-101492455D01*
X189898760Y-101511928D01*
X189250000Y-101511928D01*
X189125518Y-101524188D01*
X189005820Y-101560498D01*
X188895506Y-101619463D01*
X188798815Y-101698815D01*
X188750000Y-101758296D01*
X188701185Y-101698815D01*
X188604494Y-101619463D01*
X188494180Y-101560498D01*
X188374482Y-101524188D01*
X188250000Y-101511928D01*
X187400000Y-101511928D01*
X187275518Y-101524188D01*
X187155820Y-101560498D01*
X187147397Y-101565000D01*
X186874877Y-101565000D01*
X186788533Y-101494138D01*
X186652160Y-101421246D01*
X186605010Y-101406943D01*
X186589502Y-101355820D01*
X186530537Y-101245506D01*
X186451185Y-101148815D01*
X186354494Y-101069463D01*
X186244180Y-101010498D01*
X186124482Y-100974188D01*
X186000000Y-100961928D01*
X185000000Y-100961928D01*
X184875518Y-100974188D01*
X184755820Y-101010498D01*
X184645506Y-101069463D01*
X184548815Y-101148815D01*
X184469463Y-101245506D01*
X184410498Y-101355820D01*
X184394990Y-101406943D01*
X184347840Y-101421246D01*
X184211467Y-101494138D01*
X184091936Y-101592236D01*
X184067353Y-101622190D01*
X183709790Y-101979753D01*
X183679836Y-102004336D01*
X183598055Y-102103986D01*
X183552953Y-101877244D01*
X183392012Y-101488698D01*
X183158363Y-101139017D01*
X182860983Y-100841637D01*
X182663974Y-100710000D01*
X190702829Y-100710000D01*
X190693157Y-100721785D01*
M02*
