G04 #@! TF.GenerationSoftware,KiCad,Pcbnew,(5.1.2)-1*
G04 #@! TF.CreationDate,2021-08-30T19:49:36+09:00*
G04 #@! TF.ProjectId,IR,49522e6b-6963-4616-945f-706362585858,v1.0*
G04 #@! TF.SameCoordinates,Original*
G04 #@! TF.FileFunction,Legend,Top*
G04 #@! TF.FilePolarity,Positive*
%FSLAX46Y46*%
G04 Gerber Fmt 4.6, Leading zero omitted, Abs format (unit mm)*
G04 Created by KiCad (PCBNEW (5.1.2)-1) date 2021-08-30 19:49:36*
%MOMM*%
%LPD*%
G04 APERTURE LIST*
%ADD10C,0.200000*%
%ADD11C,0.180000*%
%ADD12C,0.150000*%
G04 APERTURE END LIST*
D10*
X186585714Y-118132142D02*
X186585714Y-117232142D01*
X186971428Y-117317857D02*
X187014285Y-117275000D01*
X187100000Y-117232142D01*
X187314285Y-117232142D01*
X187400000Y-117275000D01*
X187442857Y-117317857D01*
X187485714Y-117403571D01*
X187485714Y-117489285D01*
X187442857Y-117617857D01*
X186928571Y-118132142D01*
X187485714Y-118132142D01*
X188385714Y-118046428D02*
X188342857Y-118089285D01*
X188214285Y-118132142D01*
X188128571Y-118132142D01*
X188000000Y-118089285D01*
X187914285Y-118003571D01*
X187871428Y-117917857D01*
X187828571Y-117746428D01*
X187828571Y-117617857D01*
X187871428Y-117446428D01*
X187914285Y-117360714D01*
X188000000Y-117275000D01*
X188128571Y-117232142D01*
X188214285Y-117232142D01*
X188342857Y-117275000D01*
X188385714Y-117317857D01*
X189757142Y-117660714D02*
X189885714Y-117703571D01*
X189928571Y-117746428D01*
X189971428Y-117832142D01*
X189971428Y-117960714D01*
X189928571Y-118046428D01*
X189885714Y-118089285D01*
X189800000Y-118132142D01*
X189457142Y-118132142D01*
X189457142Y-117232142D01*
X189757142Y-117232142D01*
X189842857Y-117275000D01*
X189885714Y-117317857D01*
X189928571Y-117403571D01*
X189928571Y-117489285D01*
X189885714Y-117575000D01*
X189842857Y-117617857D01*
X189757142Y-117660714D01*
X189457142Y-117660714D01*
X190357142Y-117232142D02*
X190357142Y-117960714D01*
X190400000Y-118046428D01*
X190442857Y-118089285D01*
X190528571Y-118132142D01*
X190700000Y-118132142D01*
X190785714Y-118089285D01*
X190828571Y-118046428D01*
X190871428Y-117960714D01*
X190871428Y-117232142D01*
X191257142Y-118089285D02*
X191385714Y-118132142D01*
X191600000Y-118132142D01*
X191685714Y-118089285D01*
X191728571Y-118046428D01*
X191771428Y-117960714D01*
X191771428Y-117875000D01*
X191728571Y-117789285D01*
X191685714Y-117746428D01*
X191600000Y-117703571D01*
X191428571Y-117660714D01*
X191342857Y-117617857D01*
X191300000Y-117575000D01*
X191257142Y-117489285D01*
X191257142Y-117403571D01*
X191300000Y-117317857D01*
X191342857Y-117275000D01*
X191428571Y-117232142D01*
X191642857Y-117232142D01*
X191771428Y-117275000D01*
X184121428Y-119425000D02*
X184550000Y-119425000D01*
X184035714Y-119682142D02*
X184335714Y-118782142D01*
X184635714Y-119682142D01*
X185321428Y-119639285D02*
X185235714Y-119682142D01*
X185064285Y-119682142D01*
X184978571Y-119639285D01*
X184935714Y-119596428D01*
X184892857Y-119510714D01*
X184892857Y-119253571D01*
X184935714Y-119167857D01*
X184978571Y-119125000D01*
X185064285Y-119082142D01*
X185235714Y-119082142D01*
X185321428Y-119125000D01*
X186092857Y-119639285D02*
X186007142Y-119682142D01*
X185835714Y-119682142D01*
X185750000Y-119639285D01*
X185707142Y-119596428D01*
X185664285Y-119510714D01*
X185664285Y-119253571D01*
X185707142Y-119167857D01*
X185750000Y-119125000D01*
X185835714Y-119082142D01*
X186007142Y-119082142D01*
X186092857Y-119125000D01*
X186821428Y-119639285D02*
X186735714Y-119682142D01*
X186564285Y-119682142D01*
X186478571Y-119639285D01*
X186435714Y-119553571D01*
X186435714Y-119210714D01*
X186478571Y-119125000D01*
X186564285Y-119082142D01*
X186735714Y-119082142D01*
X186821428Y-119125000D01*
X186864285Y-119210714D01*
X186864285Y-119296428D01*
X186435714Y-119382142D01*
X187378571Y-119682142D02*
X187292857Y-119639285D01*
X187250000Y-119553571D01*
X187250000Y-118782142D01*
X188064285Y-119639285D02*
X187978571Y-119682142D01*
X187807142Y-119682142D01*
X187721428Y-119639285D01*
X187678571Y-119553571D01*
X187678571Y-119210714D01*
X187721428Y-119125000D01*
X187807142Y-119082142D01*
X187978571Y-119082142D01*
X188064285Y-119125000D01*
X188107142Y-119210714D01*
X188107142Y-119296428D01*
X187678571Y-119382142D01*
X188492857Y-119682142D02*
X188492857Y-119082142D01*
X188492857Y-119253571D02*
X188535714Y-119167857D01*
X188578571Y-119125000D01*
X188664285Y-119082142D01*
X188750000Y-119082142D01*
X189435714Y-119682142D02*
X189435714Y-119210714D01*
X189392857Y-119125000D01*
X189307142Y-119082142D01*
X189135714Y-119082142D01*
X189050000Y-119125000D01*
X189435714Y-119639285D02*
X189350000Y-119682142D01*
X189135714Y-119682142D01*
X189050000Y-119639285D01*
X189007142Y-119553571D01*
X189007142Y-119467857D01*
X189050000Y-119382142D01*
X189135714Y-119339285D01*
X189350000Y-119339285D01*
X189435714Y-119296428D01*
X189735714Y-119082142D02*
X190078571Y-119082142D01*
X189864285Y-118782142D02*
X189864285Y-119553571D01*
X189907142Y-119639285D01*
X189992857Y-119682142D01*
X190078571Y-119682142D01*
X190507142Y-119682142D02*
X190421428Y-119639285D01*
X190378571Y-119596428D01*
X190335714Y-119510714D01*
X190335714Y-119253571D01*
X190378571Y-119167857D01*
X190421428Y-119125000D01*
X190507142Y-119082142D01*
X190635714Y-119082142D01*
X190721428Y-119125000D01*
X190764285Y-119167857D01*
X190807142Y-119253571D01*
X190807142Y-119510714D01*
X190764285Y-119596428D01*
X190721428Y-119639285D01*
X190635714Y-119682142D01*
X190507142Y-119682142D01*
X191192857Y-119682142D02*
X191192857Y-119082142D01*
X191192857Y-119253571D02*
X191235714Y-119167857D01*
X191278571Y-119125000D01*
X191364285Y-119082142D01*
X191450000Y-119082142D01*
X192350000Y-119082142D02*
X192564285Y-119682142D01*
X192778571Y-119082142D01*
X193592857Y-119682142D02*
X193078571Y-119682142D01*
X193335714Y-119682142D02*
X193335714Y-118782142D01*
X193250000Y-118910714D01*
X193164285Y-118996428D01*
X193078571Y-119039285D01*
X193978571Y-119596428D02*
X194021428Y-119639285D01*
X193978571Y-119682142D01*
X193935714Y-119639285D01*
X193978571Y-119596428D01*
X193978571Y-119682142D01*
X194578571Y-118782142D02*
X194664285Y-118782142D01*
X194750000Y-118825000D01*
X194792857Y-118867857D01*
X194835714Y-118953571D01*
X194878571Y-119125000D01*
X194878571Y-119339285D01*
X194835714Y-119510714D01*
X194792857Y-119596428D01*
X194750000Y-119639285D01*
X194664285Y-119682142D01*
X194578571Y-119682142D01*
X194492857Y-119639285D01*
X194450000Y-119596428D01*
X194407142Y-119510714D01*
X194364285Y-119339285D01*
X194364285Y-119125000D01*
X194407142Y-118953571D01*
X194450000Y-118867857D01*
X194492857Y-118825000D01*
X194578571Y-118782142D01*
D11*
X186389000Y-101222000D02*
X186389000Y-104778000D01*
X186389000Y-104778000D02*
X184611000Y-104778000D01*
X184611000Y-104778000D02*
X184611000Y-101222000D01*
X184611000Y-101222000D02*
X186389000Y-101222000D01*
D12*
X187000000Y-108000000D02*
X186500000Y-108000000D01*
X186500000Y-108000000D02*
X186500000Y-112000000D01*
X186500000Y-112000000D02*
X187000000Y-112000000D01*
X187000000Y-110000000D02*
X187000000Y-114500000D01*
X187000000Y-114500000D02*
X184000000Y-114500000D01*
X184000000Y-114500000D02*
X184000000Y-105500000D01*
X184000000Y-105500000D02*
X187000000Y-105500000D01*
X187000000Y-105500000D02*
X187000000Y-110000000D01*
X190500000Y-112000000D02*
X191000000Y-112000000D01*
X191000000Y-112000000D02*
X191000000Y-108000000D01*
X191000000Y-108000000D02*
X190500000Y-108000000D01*
X190500000Y-110000000D02*
X190500000Y-105500000D01*
X190500000Y-105500000D02*
X193500000Y-105500000D01*
X193500000Y-105500000D02*
X193500000Y-114500000D01*
X193500000Y-114500000D02*
X190500000Y-114500000D01*
X190500000Y-114500000D02*
X190500000Y-110000000D01*
D11*
X192889000Y-101222000D02*
X192889000Y-104778000D01*
X192889000Y-104778000D02*
X191111000Y-104778000D01*
X191111000Y-104778000D02*
X191111000Y-101222000D01*
X191111000Y-101222000D02*
X192889000Y-101222000D01*
D10*
X187050000Y-102100000D02*
G75*
G03X187050000Y-102100000I-100000J0D01*
G01*
X189650000Y-101800000D02*
X187850000Y-101800000D01*
X189650000Y-104200000D02*
X187850000Y-104200000D01*
D12*
X180452380Y-122452380D02*
X180119047Y-121976190D01*
X179880952Y-122452380D02*
X179880952Y-121452380D01*
X180261904Y-121452380D01*
X180357142Y-121500000D01*
X180404761Y-121547619D01*
X180452380Y-121642857D01*
X180452380Y-121785714D01*
X180404761Y-121880952D01*
X180357142Y-121928571D01*
X180261904Y-121976190D01*
X179880952Y-121976190D01*
X180880952Y-121928571D02*
X181214285Y-121928571D01*
X181357142Y-122452380D02*
X180880952Y-122452380D01*
X180880952Y-121452380D01*
X181357142Y-121452380D01*
X182119047Y-121928571D02*
X181785714Y-121928571D01*
X181785714Y-122452380D02*
X181785714Y-121452380D01*
X182261904Y-121452380D01*
X183071428Y-121785714D02*
X183071428Y-122452380D01*
X182833333Y-121404761D02*
X182595238Y-122119047D01*
X183214285Y-122119047D01*
X195952380Y-121952380D02*
X195619047Y-121476190D01*
X195380952Y-121952380D02*
X195380952Y-120952380D01*
X195761904Y-120952380D01*
X195857142Y-121000000D01*
X195904761Y-121047619D01*
X195952380Y-121142857D01*
X195952380Y-121285714D01*
X195904761Y-121380952D01*
X195857142Y-121428571D01*
X195761904Y-121476190D01*
X195380952Y-121476190D01*
X196380952Y-121428571D02*
X196714285Y-121428571D01*
X196857142Y-121952380D02*
X196380952Y-121952380D01*
X196380952Y-120952380D01*
X196857142Y-120952380D01*
X197619047Y-121428571D02*
X197285714Y-121428571D01*
X197285714Y-121952380D02*
X197285714Y-120952380D01*
X197761904Y-120952380D01*
X198047619Y-120952380D02*
X198666666Y-120952380D01*
X198333333Y-121333333D01*
X198476190Y-121333333D01*
X198571428Y-121380952D01*
X198619047Y-121428571D01*
X198666666Y-121523809D01*
X198666666Y-121761904D01*
X198619047Y-121857142D01*
X198571428Y-121904761D01*
X198476190Y-121952380D01*
X198190476Y-121952380D01*
X198095238Y-121904761D01*
X198047619Y-121857142D01*
X195452380Y-98951880D02*
X195119047Y-98475690D01*
X194880952Y-98951880D02*
X194880952Y-97951880D01*
X195261904Y-97951880D01*
X195357142Y-97999500D01*
X195404761Y-98047119D01*
X195452380Y-98142357D01*
X195452380Y-98285214D01*
X195404761Y-98380452D01*
X195357142Y-98428071D01*
X195261904Y-98475690D01*
X194880952Y-98475690D01*
X195880952Y-98428071D02*
X196214285Y-98428071D01*
X196357142Y-98951880D02*
X195880952Y-98951880D01*
X195880952Y-97951880D01*
X196357142Y-97951880D01*
X197119047Y-98428071D02*
X196785714Y-98428071D01*
X196785714Y-98951880D02*
X196785714Y-97951880D01*
X197261904Y-97951880D01*
X197595238Y-98047119D02*
X197642857Y-97999500D01*
X197738095Y-97951880D01*
X197976190Y-97951880D01*
X198071428Y-97999500D01*
X198119047Y-98047119D01*
X198166666Y-98142357D01*
X198166666Y-98237595D01*
X198119047Y-98380452D01*
X197547619Y-98951880D01*
X198166666Y-98951880D01*
D11*
X184357142Y-103073476D02*
X184404761Y-103121095D01*
X184452380Y-103263952D01*
X184452380Y-103359190D01*
X184404761Y-103502047D01*
X184309523Y-103597285D01*
X184214285Y-103644904D01*
X184023809Y-103692523D01*
X183880952Y-103692523D01*
X183690476Y-103644904D01*
X183595238Y-103597285D01*
X183500000Y-103502047D01*
X183452380Y-103359190D01*
X183452380Y-103263952D01*
X183500000Y-103121095D01*
X183547619Y-103073476D01*
X184452380Y-102121095D02*
X184452380Y-102692523D01*
X184452380Y-102406809D02*
X183452380Y-102406809D01*
X183595238Y-102502047D01*
X183690476Y-102597285D01*
X183738095Y-102692523D01*
D12*
X184666666Y-114952380D02*
X184666666Y-115666666D01*
X184619047Y-115809523D01*
X184523809Y-115904761D01*
X184380952Y-115952380D01*
X184285714Y-115952380D01*
X185142857Y-115952380D02*
X185142857Y-114952380D01*
X185523809Y-114952380D01*
X185619047Y-115000000D01*
X185666666Y-115047619D01*
X185714285Y-115142857D01*
X185714285Y-115285714D01*
X185666666Y-115380952D01*
X185619047Y-115428571D01*
X185523809Y-115476190D01*
X185142857Y-115476190D01*
X186666666Y-115952380D02*
X186095238Y-115952380D01*
X186380952Y-115952380D02*
X186380952Y-114952380D01*
X186285714Y-115095238D01*
X186190476Y-115190476D01*
X186095238Y-115238095D01*
X188357142Y-112690476D02*
X188404761Y-112738095D01*
X188452380Y-112880952D01*
X188452380Y-112976190D01*
X188404761Y-113119047D01*
X188309523Y-113214285D01*
X188214285Y-113261904D01*
X188023809Y-113309523D01*
X187880952Y-113309523D01*
X187690476Y-113261904D01*
X187595238Y-113214285D01*
X187500000Y-113119047D01*
X187452380Y-112976190D01*
X187452380Y-112880952D01*
X187500000Y-112738095D01*
X187547619Y-112690476D01*
X188452380Y-111261904D02*
X187452380Y-111261904D01*
X187452380Y-111023809D01*
X187500000Y-110880952D01*
X187595238Y-110785714D01*
X187690476Y-110738095D01*
X187880952Y-110690476D01*
X188023809Y-110690476D01*
X188214285Y-110738095D01*
X188309523Y-110785714D01*
X188404761Y-110880952D01*
X188452380Y-111023809D01*
X188452380Y-111261904D01*
X187452380Y-109333333D02*
X188452380Y-109000000D01*
X187452380Y-108666666D01*
X187500000Y-106738095D02*
X187452380Y-106833333D01*
X187452380Y-106976190D01*
X187500000Y-107119047D01*
X187595238Y-107214285D01*
X187690476Y-107261904D01*
X187880952Y-107309523D01*
X188023809Y-107309523D01*
X188214285Y-107261904D01*
X188309523Y-107214285D01*
X188404761Y-107119047D01*
X188452380Y-106976190D01*
X188452380Y-106880952D01*
X188404761Y-106738095D01*
X188357142Y-106690476D01*
X188023809Y-106690476D01*
X188023809Y-106880952D01*
X191166666Y-114952380D02*
X191166666Y-115666666D01*
X191119047Y-115809523D01*
X191023809Y-115904761D01*
X190880952Y-115952380D01*
X190785714Y-115952380D01*
X191642857Y-115952380D02*
X191642857Y-114952380D01*
X192023809Y-114952380D01*
X192119047Y-115000000D01*
X192166666Y-115047619D01*
X192214285Y-115142857D01*
X192214285Y-115285714D01*
X192166666Y-115380952D01*
X192119047Y-115428571D01*
X192023809Y-115476190D01*
X191642857Y-115476190D01*
X192595238Y-115047619D02*
X192642857Y-115000000D01*
X192738095Y-114952380D01*
X192976190Y-114952380D01*
X193071428Y-115000000D01*
X193119047Y-115047619D01*
X193166666Y-115142857D01*
X193166666Y-115238095D01*
X193119047Y-115380952D01*
X192547619Y-115952380D01*
X193166666Y-115952380D01*
X189857142Y-106690476D02*
X189904761Y-106738095D01*
X189952380Y-106880952D01*
X189952380Y-106976190D01*
X189904761Y-107119047D01*
X189809523Y-107214285D01*
X189714285Y-107261904D01*
X189523809Y-107309523D01*
X189380952Y-107309523D01*
X189190476Y-107261904D01*
X189095238Y-107214285D01*
X189000000Y-107119047D01*
X188952380Y-106976190D01*
X188952380Y-106880952D01*
X189000000Y-106738095D01*
X189047619Y-106690476D01*
X189952380Y-109261904D02*
X188952380Y-109261904D01*
X188952380Y-109023809D01*
X189000000Y-108880952D01*
X189095238Y-108785714D01*
X189190476Y-108738095D01*
X189380952Y-108690476D01*
X189523809Y-108690476D01*
X189714285Y-108738095D01*
X189809523Y-108785714D01*
X189904761Y-108880952D01*
X189952380Y-109023809D01*
X189952380Y-109261904D01*
X188952380Y-111333333D02*
X189952380Y-111000000D01*
X188952380Y-110666666D01*
X189000000Y-112738095D02*
X188952380Y-112833333D01*
X188952380Y-112976190D01*
X189000000Y-113119047D01*
X189095238Y-113214285D01*
X189190476Y-113261904D01*
X189380952Y-113309523D01*
X189523809Y-113309523D01*
X189714285Y-113261904D01*
X189809523Y-113214285D01*
X189904761Y-113119047D01*
X189952380Y-112976190D01*
X189952380Y-112880952D01*
X189904761Y-112738095D01*
X189857142Y-112690476D01*
X189523809Y-112690476D01*
X189523809Y-112880952D01*
D11*
X193952380Y-103073476D02*
X193476190Y-103406809D01*
X193952380Y-103644904D02*
X192952380Y-103644904D01*
X192952380Y-103263952D01*
X193000000Y-103168714D01*
X193047619Y-103121095D01*
X193142857Y-103073476D01*
X193285714Y-103073476D01*
X193380952Y-103121095D01*
X193428571Y-103168714D01*
X193476190Y-103263952D01*
X193476190Y-103644904D01*
X193952380Y-102121095D02*
X193952380Y-102692523D01*
X193952380Y-102406809D02*
X192952380Y-102406809D01*
X193095238Y-102502047D01*
X193190476Y-102597285D01*
X193238095Y-102692523D01*
D12*
X187988095Y-100452380D02*
X187988095Y-101261904D01*
X188035714Y-101357142D01*
X188083333Y-101404761D01*
X188178571Y-101452380D01*
X188369047Y-101452380D01*
X188464285Y-101404761D01*
X188511904Y-101357142D01*
X188559523Y-101261904D01*
X188559523Y-100452380D01*
X189559523Y-101452380D02*
X188988095Y-101452380D01*
X189273809Y-101452380D02*
X189273809Y-100452380D01*
X189178571Y-100595238D01*
X189083333Y-100690476D01*
X188988095Y-100738095D01*
X180452380Y-98951880D02*
X180119047Y-98475690D01*
X179880952Y-98951880D02*
X179880952Y-97951880D01*
X180261904Y-97951880D01*
X180357142Y-97999500D01*
X180404761Y-98047119D01*
X180452380Y-98142357D01*
X180452380Y-98285214D01*
X180404761Y-98380452D01*
X180357142Y-98428071D01*
X180261904Y-98475690D01*
X179880952Y-98475690D01*
X180880952Y-98428071D02*
X181214285Y-98428071D01*
X181357142Y-98951880D02*
X180880952Y-98951880D01*
X180880952Y-97951880D01*
X181357142Y-97951880D01*
X182119047Y-98428071D02*
X181785714Y-98428071D01*
X181785714Y-98951880D02*
X181785714Y-97951880D01*
X182261904Y-97951880D01*
X183166666Y-98951880D02*
X182595238Y-98951880D01*
X182880952Y-98951880D02*
X182880952Y-97951880D01*
X182785714Y-98094738D01*
X182690476Y-98189976D01*
X182595238Y-98237595D01*
M02*
